<svg width="198" height="36" viewBox="0 0 198 36" fill="none" xmlns="http://www.w3.org/2000/svg">
<path fill-rule="evenodd" clip-rule="evenodd" d="M13.3564 18.4999H4.5V12.4999H30.9558C30.5383 11.4101 29.9989 10.3646 29.3439 9.38423C27.6134 6.79432 25.1537 4.77573 22.2759 3.58372C19.3982 2.39171 16.2316 2.07983 13.1766 2.68751C10.1215 3.29519 7.31533 4.79514 5.11279 6.99768C2.91025 9.20022 1.4103 12.0064 0.80262 15.0614C0.19494 18.1165 0.506824 21.2831 1.69883 24.1608C2.89084 27.0386 4.90943 29.4982 7.49935 31.2288C9.27857 32.4176 11.2725 33.2257 13.3564 33.615L13.3564 18.4999Z" fill="#0456FB"/>
<path d="M44.0212 10.9851V7.18182H61.9402V10.9851H55.2605V29H50.7008V10.9851H44.0212ZM63.1067 29V12.6364H67.5066V15.4915H67.677C67.9753 14.4759 68.4761 13.7088 69.1792 13.1903C69.8823 12.6648 70.692 12.402 71.6082 12.402C71.8354 12.402 72.0805 12.4162 72.3432 12.4446C72.606 12.473 72.8368 12.5121 73.0357 12.5618V16.5888C72.8226 16.5249 72.5279 16.468 72.1515 16.4183C71.7751 16.3686 71.4306 16.3438 71.1181 16.3438C70.4505 16.3438 69.8539 16.4893 69.3283 16.7805C68.8099 17.0646 68.3979 17.4624 68.0925 17.9737C67.7942 18.4851 67.6451 19.0746 67.6451 19.7422V29H63.1067ZM85.8757 22.0327V12.6364H90.4141V29H86.0568V26.0277H85.8864C85.5171 26.9865 84.9027 27.7571 84.0433 28.3395C83.1911 28.9219 82.1506 29.2131 80.9219 29.2131C79.8281 29.2131 78.8658 28.9645 78.0348 28.4673C77.2039 27.9702 76.554 27.2635 76.0852 26.3473C75.6236 25.4311 75.3892 24.3338 75.3821 23.0554V12.6364H79.9205V22.2457C79.9276 23.2116 80.1868 23.9751 80.6982 24.5362C81.2095 25.0973 81.8949 25.3778 82.7543 25.3778C83.3012 25.3778 83.8125 25.2536 84.2884 25.005C84.7642 24.7493 85.1477 24.3729 85.4389 23.8757C85.7372 23.3786 85.8828 22.7642 85.8757 22.0327ZM107.659 17.3026L103.504 17.5582C103.433 17.2031 103.281 16.8835 103.046 16.5994C102.812 16.3082 102.503 16.0774 102.12 15.907C101.743 15.7294 101.292 15.6406 100.767 15.6406C100.063 15.6406 99.4704 15.7898 98.9874 16.0881C98.5045 16.3793 98.263 16.7699 98.263 17.2599C98.263 17.6506 98.4192 17.9808 98.7317 18.2507C99.0442 18.5206 99.5805 18.7372 100.34 18.9006L103.302 19.4972C104.893 19.8239 106.079 20.3494 106.86 21.0739C107.642 21.7983 108.032 22.75 108.032 23.929C108.032 25.0014 107.716 25.9425 107.084 26.7521C106.459 27.5618 105.6 28.1939 104.506 28.6484C103.419 29.0959 102.166 29.3196 100.745 29.3196C98.579 29.3196 96.8532 28.8686 95.5677 27.9666C94.2893 27.0575 93.54 25.8217 93.3198 24.2592L97.7836 24.0249C97.9185 24.6854 98.2452 25.1896 98.7637 25.5376C99.2822 25.8786 99.9462 26.049 100.756 26.049C101.551 26.049 102.191 25.8963 102.673 25.5909C103.164 25.2784 103.412 24.8771 103.419 24.3871C103.412 23.9751 103.238 23.6378 102.897 23.375C102.556 23.1051 102.031 22.8991 101.321 22.7571L98.4867 22.1925C96.8887 21.8729 95.6991 21.3189 94.9178 20.5305C94.1437 19.7422 93.7566 18.7372 93.7566 17.5156C93.7566 16.4645 94.0407 15.5589 94.6089 14.799C95.1841 14.0391 95.9903 13.4531 97.0272 13.0412C98.0712 12.6293 99.2928 12.4233 100.692 12.4233C102.759 12.4233 104.385 12.8601 105.571 13.7337C106.764 14.6072 107.46 15.7969 107.659 17.3026ZM119.594 12.6364V16.0455H109.739V12.6364H119.594ZM111.977 8.71591H116.515V23.9716C116.515 24.3906 116.579 24.7173 116.707 24.9517C116.835 25.179 117.012 25.3388 117.239 25.4311C117.474 25.5234 117.744 25.5696 118.049 25.5696C118.262 25.5696 118.475 25.5518 118.688 25.5163C118.901 25.4737 119.065 25.4418 119.178 25.4205L119.892 28.7976C119.665 28.8686 119.345 28.9503 118.933 29.0426C118.521 29.142 118.021 29.2024 117.431 29.2237C116.337 29.2663 115.379 29.1207 114.555 28.7869C113.738 28.4531 113.102 27.9347 112.648 27.2315C112.193 26.5284 111.969 25.6406 111.977 24.5682V8.71591ZM125.203 29.277C124.5 29.277 123.896 29.0284 123.392 28.5312C122.895 28.027 122.646 27.4233 122.646 26.7202C122.646 26.0241 122.895 25.4276 123.392 24.9304C123.896 24.4332 124.5 24.1847 125.203 24.1847C125.885 24.1847 126.481 24.4332 126.993 24.9304C127.504 25.4276 127.76 26.0241 127.76 26.7202C127.76 27.1889 127.639 27.6186 127.397 28.0092C127.163 28.3928 126.854 28.7017 126.471 28.9361C126.087 29.1634 125.664 29.277 125.203 29.277ZM150.822 14.8203H146.155C146.07 14.2166 145.896 13.6804 145.633 13.2116C145.371 12.7358 145.033 12.331 144.621 11.9972C144.209 11.6634 143.734 11.4077 143.194 11.2301C142.661 11.0526 142.082 10.9638 141.457 10.9638C140.328 10.9638 139.344 11.2443 138.506 11.8054C137.668 12.3594 137.018 13.169 136.557 14.2344C136.095 15.2926 135.864 16.5781 135.864 18.0909C135.864 19.6463 136.095 20.9531 136.557 22.0114C137.025 23.0696 137.679 23.8686 138.517 24.4084C139.355 24.9482 140.324 25.218 141.425 25.218C142.043 25.218 142.615 25.1364 143.14 24.973C143.673 24.8097 144.145 24.5717 144.557 24.2592C144.969 23.9396 145.31 23.5526 145.58 23.098C145.857 22.6435 146.049 22.125 146.155 21.5426L150.822 21.5639C150.701 22.5653 150.399 23.5312 149.916 24.4616C149.44 25.3849 148.797 26.2124 147.988 26.9439C147.185 27.6683 146.226 28.2436 145.111 28.6697C144.003 29.0888 142.75 29.2983 141.351 29.2983C139.405 29.2983 137.665 28.858 136.131 27.9773C134.604 27.0966 133.396 25.8217 132.508 24.1527C131.628 22.4837 131.187 20.4631 131.187 18.0909C131.187 15.7116 131.635 13.6875 132.53 12.0185C133.425 10.3494 134.639 9.07812 136.173 8.20455C137.707 7.32386 139.433 6.88352 141.351 6.88352C142.615 6.88352 143.787 7.06108 144.866 7.41619C145.953 7.77131 146.915 8.28977 147.753 8.97159C148.591 9.64631 149.273 10.4737 149.799 11.4538C150.332 12.4339 150.672 13.5561 150.822 14.8203ZM161.438 29.3196C159.783 29.3196 158.352 28.968 157.144 28.2649C155.944 27.5547 155.017 26.5675 154.364 25.3033C153.71 24.032 153.384 22.5582 153.384 20.8821C153.384 19.1918 153.71 17.7145 154.364 16.4503C155.017 15.179 155.944 14.1918 157.144 13.4886C158.352 12.7784 159.783 12.4233 161.438 12.4233C163.093 12.4233 164.52 12.7784 165.72 13.4886C166.928 14.1918 167.858 15.179 168.512 16.4503C169.165 17.7145 169.492 19.1918 169.492 20.8821C169.492 22.5582 169.165 24.032 168.512 25.3033C167.858 26.5675 166.928 27.5547 165.72 28.2649C164.52 28.968 163.093 29.3196 161.438 29.3196ZM161.459 25.804C162.212 25.804 162.84 25.5909 163.345 25.1648C163.849 24.7315 164.229 24.142 164.485 23.3963C164.747 22.6506 164.879 21.8018 164.879 20.8501C164.879 19.8984 164.747 19.0497 164.485 18.304C164.229 17.5582 163.849 16.9687 163.345 16.5355C162.84 16.1023 162.212 15.8857 161.459 15.8857C160.699 15.8857 160.06 16.1023 159.541 16.5355C159.03 16.9687 158.643 17.5582 158.38 18.304C158.124 19.0497 157.997 19.8984 157.997 20.8501C157.997 21.8018 158.124 22.6506 158.38 23.3963C158.643 24.142 159.03 24.7315 159.541 25.1648C160.06 25.5909 160.699 25.804 161.459 25.804ZM172.443 29V12.6364H176.981V29H172.443ZM174.723 10.527C174.048 10.527 173.469 10.3033 172.986 9.85582C172.51 9.40128 172.272 8.85795 172.272 8.22585C172.272 7.60085 172.51 7.06463 172.986 6.61719C173.469 6.16264 174.048 5.93537 174.723 5.93537C175.397 5.93537 175.973 6.16264 176.448 6.61719C176.931 7.06463 177.173 7.60085 177.173 8.22585C177.173 8.85795 176.931 9.40128 176.448 9.85582C175.973 10.3033 175.397 10.527 174.723 10.527ZM185.155 19.5398V29H180.616V12.6364H184.942V15.5234H185.134C185.496 14.5717 186.103 13.8189 186.955 13.2649C187.808 12.7038 188.841 12.4233 190.055 12.4233C191.192 12.4233 192.183 12.6719 193.028 13.169C193.873 13.6662 194.53 14.3764 194.999 15.2997C195.467 16.2159 195.702 17.3097 195.702 18.581V29H191.163V19.3906C191.17 18.3892 190.915 17.608 190.396 17.0469C189.878 16.4787 189.164 16.1946 188.255 16.1946C187.644 16.1946 187.104 16.326 186.636 16.5888C186.174 16.8516 185.812 17.2351 185.549 17.7393C185.293 18.2365 185.162 18.8366 185.155 19.5398Z" fill="white"/>
<circle cx="26.5" cy="31" r="4" fill="#0456FB"/>
</svg>
