<svg width="198" height="36" viewBox="0 0 198 36" fill="none" xmlns="http://www.w3.org/2000/svg">
<path fill-rule="evenodd" clip-rule="evenodd" d="M12.8564 18.5H4V12.5H30.4558C30.0383 11.4102 29.4989 10.3647 28.8439 9.38436C27.1134 6.79444 24.6537 4.77585 21.7759 3.58384C18.8982 2.39183 15.7316 2.07995 12.6766 2.68763C9.62154 3.29531 6.81533 4.79526 4.61279 6.9978C2.41025 9.20034 0.9103 12.0066 0.30262 15.0616C-0.30506 18.1166 0.00682384 21.2832 1.19883 24.1609C2.39084 27.0387 4.40943 29.4984 6.99935 31.2289C8.77857 32.4177 10.7725 33.2258 12.8564 33.6152L12.8564 18.5Z" fill="#0456FB"/>
<path d="M43.5212 10.9851V7.18182H61.4402V10.9851H54.7605V29H50.2008V10.9851H43.5212ZM62.6067 29V12.6364H67.0066V15.4915H67.177C67.4753 14.4759 67.9761 13.7088 68.6792 13.1903C69.3823 12.6648 70.192 12.402 71.1082 12.402C71.3354 12.402 71.5805 12.4162 71.8432 12.4446C72.106 12.473 72.3368 12.5121 72.5357 12.5618V16.5888C72.3226 16.5249 72.0279 16.468 71.6515 16.4183C71.2751 16.3686 70.9306 16.3438 70.6181 16.3438C69.9505 16.3438 69.3539 16.4893 68.8283 16.7805C68.3099 17.0646 67.8979 17.4624 67.5925 17.9737C67.2942 18.4851 67.1451 19.0746 67.1451 19.7422V29H62.6067ZM85.3757 22.0327V12.6364H89.9141V29H85.5568V26.0277H85.3864C85.0171 26.9865 84.4027 27.7571 83.5433 28.3395C82.6911 28.9219 81.6506 29.2131 80.4219 29.2131C79.3281 29.2131 78.3658 28.9645 77.5348 28.4673C76.7039 27.9702 76.054 27.2635 75.5852 26.3473C75.1236 25.4311 74.8892 24.3338 74.8821 23.0554V12.6364H79.4205V22.2457C79.4276 23.2116 79.6868 23.9751 80.1982 24.5362C80.7095 25.0973 81.3949 25.3778 82.2543 25.3778C82.8012 25.3778 83.3125 25.2536 83.7884 25.005C84.2642 24.7493 84.6477 24.3729 84.9389 23.8757C85.2372 23.3786 85.3828 22.7642 85.3757 22.0327ZM107.159 17.3026L103.004 17.5582C102.933 17.2031 102.781 16.8835 102.546 16.5994C102.312 16.3082 102.003 16.0774 101.62 15.907C101.243 15.7294 100.792 15.6406 100.267 15.6406C99.5634 15.6406 98.9704 15.7898 98.4874 16.0881C98.0045 16.3793 97.763 16.7699 97.763 17.2599C97.763 17.6506 97.9192 17.9808 98.2317 18.2507C98.5442 18.5206 99.0805 18.7372 99.8404 18.9006L102.802 19.4972C104.393 19.8239 105.579 20.3494 106.36 21.0739C107.142 21.7983 107.532 22.75 107.532 23.929C107.532 25.0014 107.216 25.9425 106.584 26.7521C105.959 27.5618 105.1 28.1939 104.006 28.6484C102.919 29.0959 101.666 29.3196 100.245 29.3196C98.079 29.3196 96.3532 28.8686 95.0677 27.9666C93.7893 27.0575 93.04 25.8217 92.8198 24.2592L97.2836 24.0249C97.4185 24.6854 97.7452 25.1896 98.2637 25.5376C98.7822 25.8786 99.4462 26.049 100.256 26.049C101.051 26.049 101.691 25.8963 102.173 25.5909C102.664 25.2784 102.912 24.8771 102.919 24.3871C102.912 23.9751 102.738 23.6378 102.397 23.375C102.056 23.1051 101.531 22.8991 100.821 22.7571L97.9867 22.1925C96.3887 21.8729 95.1991 21.3189 94.4178 20.5305C93.6437 19.7422 93.2566 18.7372 93.2566 17.5156C93.2566 16.4645 93.5407 15.5589 94.1089 14.799C94.6841 14.0391 95.4903 13.4531 96.5272 13.0412C97.5712 12.6293 98.7928 12.4233 100.192 12.4233C102.259 12.4233 103.885 12.8601 105.071 13.7337C106.264 14.6072 106.96 15.7969 107.159 17.3026ZM119.094 12.6364V16.0455H109.239V12.6364H119.094ZM111.477 8.71591H116.015V23.9716C116.015 24.3906 116.079 24.7173 116.207 24.9517C116.335 25.179 116.512 25.3388 116.739 25.4311C116.974 25.5234 117.244 25.5696 117.549 25.5696C117.762 25.5696 117.975 25.5518 118.188 25.5163C118.401 25.4737 118.565 25.4418 118.678 25.4205L119.392 28.7976C119.165 28.8686 118.845 28.9503 118.433 29.0426C118.021 29.142 117.521 29.2024 116.931 29.2237C115.837 29.2663 114.879 29.1207 114.055 28.7869C113.238 28.4531 112.602 27.9347 112.148 27.2315C111.693 26.5284 111.469 25.6406 111.477 24.5682V8.71591ZM124.703 29.277C124 29.277 123.396 29.0284 122.892 28.5312C122.395 28.027 122.146 27.4233 122.146 26.7202C122.146 26.0241 122.395 25.4276 122.892 24.9304C123.396 24.4332 124 24.1847 124.703 24.1847C125.385 24.1847 125.981 24.4332 126.493 24.9304C127.004 25.4276 127.26 26.0241 127.26 26.7202C127.26 27.1889 127.139 27.6186 126.897 28.0092C126.663 28.3928 126.354 28.7017 125.971 28.9361C125.587 29.1634 125.164 29.277 124.703 29.277ZM150.322 14.8203H145.655C145.57 14.2166 145.396 13.6804 145.133 13.2116C144.871 12.7358 144.533 12.331 144.121 11.9972C143.709 11.6634 143.234 11.4077 142.694 11.2301C142.161 11.0526 141.582 10.9638 140.957 10.9638C139.828 10.9638 138.844 11.2443 138.006 11.8054C137.168 12.3594 136.518 13.169 136.057 14.2344C135.595 15.2926 135.364 16.5781 135.364 18.0909C135.364 19.6463 135.595 20.9531 136.057 22.0114C136.525 23.0696 137.179 23.8686 138.017 24.4084C138.855 24.9482 139.824 25.218 140.925 25.218C141.543 25.218 142.115 25.1364 142.64 24.973C143.173 24.8097 143.645 24.5717 144.057 24.2592C144.469 23.9396 144.81 23.5526 145.08 23.098C145.357 22.6435 145.549 22.125 145.655 21.5426L150.322 21.5639C150.201 22.5653 149.899 23.5312 149.416 24.4616C148.94 25.3849 148.297 26.2124 147.488 26.9439C146.685 27.6683 145.726 28.2436 144.611 28.6697C143.503 29.0888 142.25 29.2983 140.851 29.2983C138.905 29.2983 137.165 28.858 135.631 27.9773C134.104 27.0966 132.896 25.8217 132.008 24.1527C131.128 22.4837 130.687 20.4631 130.687 18.0909C130.687 15.7116 131.135 13.6875 132.03 12.0185C132.925 10.3494 134.139 9.07812 135.673 8.20455C137.207 7.32386 138.933 6.88352 140.851 6.88352C142.115 6.88352 143.287 7.06108 144.366 7.41619C145.453 7.77131 146.415 8.28977 147.253 8.97159C148.091 9.64631 148.773 10.4737 149.299 11.4538C149.832 12.4339 150.172 13.5561 150.322 14.8203ZM160.938 29.3196C159.283 29.3196 157.852 28.968 156.644 28.2649C155.444 27.5547 154.517 26.5675 153.864 25.3033C153.21 24.032 152.884 22.5582 152.884 20.8821C152.884 19.1918 153.21 17.7145 153.864 16.4503C154.517 15.179 155.444 14.1918 156.644 13.4886C157.852 12.7784 159.283 12.4233 160.938 12.4233C162.593 12.4233 164.02 12.7784 165.22 13.4886C166.428 14.1918 167.358 15.179 168.012 16.4503C168.665 17.7145 168.992 19.1918 168.992 20.8821C168.992 22.5582 168.665 24.032 168.012 25.3033C167.358 26.5675 166.428 27.5547 165.22 28.2649C164.02 28.968 162.593 29.3196 160.938 29.3196ZM160.959 25.804C161.712 25.804 162.34 25.5909 162.845 25.1648C163.349 24.7315 163.729 24.142 163.985 23.3963C164.247 22.6506 164.379 21.8018 164.379 20.8501C164.379 19.8984 164.247 19.0497 163.985 18.304C163.729 17.5582 163.349 16.9687 162.845 16.5355C162.34 16.1023 161.712 15.8857 160.959 15.8857C160.199 15.8857 159.56 16.1023 159.041 16.5355C158.53 16.9687 158.143 17.5582 157.88 18.304C157.624 19.0497 157.497 19.8984 157.497 20.8501C157.497 21.8018 157.624 22.6506 157.88 23.3963C158.143 24.142 158.53 24.7315 159.041 25.1648C159.56 25.5909 160.199 25.804 160.959 25.804ZM171.943 29V12.6364H176.481V29H171.943ZM174.223 10.527C173.548 10.527 172.969 10.3033 172.486 9.85582C172.01 9.40128 171.772 8.85795 171.772 8.22585C171.772 7.60085 172.01 7.06463 172.486 6.61719C172.969 6.16264 173.548 5.93537 174.223 5.93537C174.897 5.93537 175.473 6.16264 175.948 6.61719C176.431 7.06463 176.673 7.60085 176.673 8.22585C176.673 8.85795 176.431 9.40128 175.948 9.85582C175.473 10.3033 174.897 10.527 174.223 10.527ZM184.655 19.5398V29H180.116V12.6364H184.442V15.5234H184.634C184.996 14.5717 185.603 13.8189 186.455 13.2649C187.308 12.7038 188.341 12.4233 189.555 12.4233C190.692 12.4233 191.683 12.6719 192.528 13.169C193.373 13.6662 194.03 14.3764 194.499 15.2997C194.967 16.2159 195.202 17.3097 195.202 18.581V29H190.663V19.3906C190.67 18.3892 190.415 17.608 189.896 17.0469C189.378 16.4787 188.664 16.1946 187.755 16.1946C187.144 16.1946 186.604 16.326 186.136 16.5888C185.674 16.8516 185.312 17.2351 185.049 17.7393C184.793 18.2365 184.662 18.8366 184.655 19.5398Z" fill="black"/>
<circle cx="26" cy="31" r="4" fill="#0456FB"/>
</svg>
