<svg width="161" height="76" viewBox="0 0 161 76" fill="none" xmlns="http://www.w3.org/2000/svg">
<path d="M42.3481 14.1909H58.7465V17.3444H52.4394V34.3735H48.6552V17.3444H42.3481V14.1909ZM57.8004 19.5519H60.9539V22.3901C60.9539 22.0747 61.2693 21.7594 61.5846 21.1287C61.9 20.498 62.2153 20.498 62.5307 20.1826C62.846 19.8673 63.4767 19.5519 63.7921 19.5519C64.1074 19.2366 64.7382 19.2366 65.3689 19.2366C65.6842 19.2366 65.9996 19.2366 65.9996 19.2366H66.3149V22.3901C65.9996 22.3901 65.9996 22.3901 65.6842 22.3901C65.3689 22.3901 65.3689 22.3901 65.0535 22.3901C64.4228 22.3901 64.1075 22.3901 63.4767 22.7054C62.846 23.0208 62.5307 23.3361 62.2153 23.6515C61.9 23.9668 61.5846 24.5975 61.2693 25.2282C60.9539 25.859 60.9539 26.4897 60.9539 27.4357V34.3735H57.8004V19.5519ZM81.1365 34.3735H77.9829V32.4813C77.6676 33.1121 77.0369 33.7428 76.0908 34.3735C75.4601 34.6888 74.5141 35.0042 73.568 35.0042C71.6759 35.0042 70.4145 34.6888 69.4684 33.4274C68.5224 32.166 68.207 30.9046 68.207 29.0125V19.8673H71.3606V28.6971C71.3606 29.9585 71.6759 30.9046 71.9913 31.5353C72.622 32.166 73.2527 32.4813 74.1987 32.4813C74.8294 32.4813 75.4601 32.4813 75.7755 32.166C76.0908 31.8506 76.7215 31.5353 76.7215 31.2199C77.0369 30.9046 77.3522 30.5892 77.3522 29.9585C77.3522 29.3278 77.6676 29.0125 77.6676 28.3818V19.8673H80.8211V34.3735H81.1365ZM86.4975 29.6432C86.4975 30.5892 86.8128 31.2199 87.4435 31.5353C88.0742 31.8506 88.7049 32.166 89.651 32.166C89.9663 32.166 90.2817 32.166 90.597 32.166C90.9124 32.166 91.2277 32.166 91.5431 31.8506C91.8584 31.8506 92.1738 31.5353 92.4892 31.2199C92.8045 30.9046 92.8045 30.5892 92.8045 30.2739C92.8045 29.9585 92.4892 29.6432 92.4892 29.3278C92.1738 29.0125 91.8584 29.0125 91.5431 28.6971C91.2277 28.6971 90.597 28.3818 89.9663 28.3818C89.3356 28.3818 88.7049 28.0664 88.3896 28.0664C87.7589 28.0664 87.1282 27.7511 86.8128 27.4357C86.4975 27.1204 85.8667 27.1204 85.236 26.805C84.9207 26.4897 84.29 26.1743 84.29 25.5436C83.9746 24.9129 83.9746 24.2822 83.9746 23.6515C83.9746 22.7054 84.29 22.0747 84.6054 21.7594C84.9207 21.444 85.5514 20.8133 86.1821 20.498C86.8128 20.1826 87.4435 19.8673 88.0742 19.8673C88.7049 19.8673 89.651 19.5519 90.2817 19.5519C90.9124 19.5519 91.8585 19.5519 92.4892 19.8673C93.1199 19.8673 93.7506 20.1826 94.3813 20.498C95.012 20.8133 95.3273 21.444 95.6427 21.7594C95.958 22.3901 96.2734 23.0208 96.2734 23.9668H92.8045C92.8045 23.3361 92.1738 22.7054 91.8585 22.3901C90.9124 22.0747 90.2817 21.7594 89.651 21.7594C89.3356 21.7594 89.0203 21.7594 88.7049 21.7594C88.3896 21.7594 88.0742 21.7594 87.7589 22.0747C87.4435 22.0747 87.1282 22.3901 87.1282 22.3901C86.8128 22.7054 86.8128 22.7054 86.8128 23.0208C86.8128 23.3361 86.8128 23.6515 87.1282 23.9668C87.4435 24.2822 87.7589 24.2822 88.0742 24.5975C88.3896 24.5975 89.0203 24.9129 89.651 24.9129C90.2817 24.9129 90.9124 25.2282 91.5431 25.2282C92.1738 25.2282 92.8045 25.5436 93.1199 25.8589C93.7506 26.1743 94.0659 26.1743 94.6966 26.4897C95.3273 26.805 95.6427 27.1204 95.6427 27.7511C95.958 28.3818 95.958 28.6971 95.958 29.6432C95.958 30.5892 95.6427 31.2199 95.3273 31.8506C95.012 32.4814 94.3813 32.7967 93.7506 33.4274C93.4352 34.0581 92.8045 34.3735 92.1738 34.3735C91.5431 34.3735 90.597 34.6888 89.9663 34.6888C89.0203 34.6888 88.0742 34.6888 87.4435 34.3735C86.8128 34.0581 85.8668 33.7428 85.5514 33.4274C84.9207 33.1121 84.6053 32.4814 84.29 31.8506C83.6593 31.2199 83.3439 30.5892 83.3439 29.6432H86.4975ZM97.2194 19.5519H99.7423V15.4523H102.896V19.8673H105.734V22.3901H102.896V30.2739C102.896 30.5892 102.896 30.9046 102.896 31.2199C102.896 31.5353 102.896 31.5353 103.211 31.8506C103.526 32.166 103.526 32.166 103.526 32.166C103.842 32.166 104.157 32.166 104.473 32.166C104.788 32.166 104.788 32.166 105.103 32.166C105.419 32.166 105.419 32.166 105.734 32.166V34.3735C105.419 34.3735 105.103 34.3735 104.788 34.3735C104.473 34.3735 104.157 34.3735 103.842 34.3735C102.896 34.3735 102.265 34.3735 101.95 34.0581C101.319 34.0581 101.004 33.7428 100.688 33.4274C100.373 33.1121 100.058 32.7967 100.058 32.166C100.058 31.8506 99.7423 31.2199 99.7423 30.5892V22.0747H97.2194V19.5519ZM107.941 19.5519H111.095V21.7594C111.41 20.8133 112.041 20.1826 112.987 19.8673C113.933 19.5519 114.564 19.2366 115.51 19.2366C116.771 19.2366 117.717 19.5519 118.663 19.8673C119.609 20.1826 120.24 20.8133 120.871 21.444C121.502 22.0747 121.817 23.0208 122.132 23.9668C122.448 24.9129 122.448 25.859 122.448 27.1204C122.448 28.0664 122.448 29.0125 122.132 29.9585C121.817 30.9046 121.502 31.5353 120.871 32.4813C120.24 33.1121 119.609 33.7428 118.979 34.0581C118.033 34.3735 117.402 34.6888 116.141 34.6888C115.825 34.6888 115.195 34.6888 114.879 34.6888C114.564 34.6888 113.933 34.3735 113.618 34.3735C113.302 34.0581 112.672 34.0581 112.356 33.7428C112.041 33.4274 111.726 33.1121 111.41 32.7967V40.0498H108.257V19.5519H107.941ZM119.294 27.1204C119.294 26.4897 119.294 25.859 118.979 25.2282C118.663 24.5975 118.663 23.9668 118.348 23.6515C118.033 23.3361 117.717 22.7054 117.087 22.3901C116.456 22.0747 116.141 22.0747 115.195 22.0747C113.933 22.0747 112.672 22.3901 112.041 23.3361C111.41 24.2822 111.095 25.5436 111.095 27.1204C111.095 27.7511 111.095 28.6971 111.41 29.0125C111.726 29.6432 111.726 30.2739 112.356 30.5892C112.672 30.9046 112.987 31.5353 113.618 31.5353C114.248 31.8506 114.564 31.8506 115.195 31.8506C115.825 31.8506 116.456 31.8506 117.087 31.5353C117.717 31.2199 118.033 30.9046 118.348 30.2739C118.663 29.6432 118.979 29.3278 118.979 28.6971C118.979 28.3818 119.294 27.7511 119.294 27.1204ZM124.97 14.1909H128.124V17.3444H124.97V14.1909ZM124.97 19.5519H128.124V34.3735H124.97V19.5519ZM130.962 14.1909H134.116V34.3735H130.962V14.1909ZM143.892 34.6888C142.63 34.6888 141.684 34.3735 140.738 34.0581C139.792 33.7428 139.161 33.1121 138.531 32.4813C137.9 31.8506 137.269 30.9046 136.954 29.9585C136.638 29.0125 136.323 28.0664 136.323 26.805C136.323 25.5436 136.638 24.5975 136.954 23.6515C137.269 22.7054 137.9 21.7594 138.531 21.1287C139.161 20.498 139.792 19.8673 140.738 19.5519C141.684 19.2366 142.63 18.9212 143.892 18.9212C145.153 18.9212 146.099 19.2366 147.045 19.5519C147.991 19.8673 148.622 20.498 149.253 21.1287C149.883 21.7594 150.514 22.7054 150.829 23.6515C151.145 24.5975 151.46 25.5436 151.46 26.805C151.46 28.0664 151.145 29.0125 150.829 29.9585C150.514 30.9046 149.883 31.8506 149.253 32.4813C148.622 33.1121 147.991 33.7428 147.045 34.0581C146.099 34.3735 145.153 34.6888 143.892 34.6888ZM143.892 32.166C144.522 32.166 145.153 32.166 145.784 31.8506C146.414 31.5353 146.73 31.2199 147.045 30.5892C147.36 29.9585 147.676 29.6432 147.676 29.0125C147.676 28.3818 147.991 27.7511 147.991 27.1204C147.991 26.4897 147.991 25.859 147.676 25.2282C147.676 24.5975 147.36 23.9668 147.045 23.6515C146.73 23.3361 146.414 22.7054 145.784 22.3901C145.153 22.0747 144.522 22.0747 143.892 22.0747C143.261 22.0747 142.63 22.0747 141.999 22.3901C141.369 22.7054 141.053 23.0208 140.738 23.6515C140.423 24.2822 140.107 24.5975 140.107 25.2282C140.107 25.859 139.792 26.4897 139.792 27.1204C139.792 27.7511 139.792 28.3818 140.107 29.0125C140.107 29.6432 140.423 30.2739 140.738 30.5892C141.053 31.2199 141.369 31.5353 141.999 31.8506C142.63 31.8506 143.261 32.166 143.892 32.166ZM152.406 19.5519H154.929V15.4523H158.082V19.8673H160.921V22.3901H158.082V30.2739C158.082 30.5892 158.082 30.9046 158.082 31.2199C158.082 31.5353 158.082 31.5353 158.398 31.8506C158.713 32.166 158.713 32.166 158.713 32.166C159.028 32.166 159.344 32.166 159.659 32.166C159.975 32.166 159.975 32.166 160.29 32.166C160.605 32.166 160.605 32.166 160.921 32.166V34.3735C160.605 34.3735 160.29 34.3735 159.975 34.3735C159.659 34.3735 159.344 34.3735 159.028 34.3735C158.082 34.3735 157.452 34.3735 157.136 34.0581C156.506 34.0581 156.19 33.7428 155.875 33.4274C155.56 33.1121 155.244 32.7967 155.244 32.166C155.244 31.8506 154.929 31.2199 154.929 30.5892V22.0747H152.406V19.5519Z" fill="white"/>
<path d="M38.5643 14.1909H23.7427L19.3278 0L14.5975 14.1909H0.0913086L11.7593 22.7054L7.34441 36.8962L19.3278 28.0664L30.9958 36.8962L26.5809 22.7054L38.5643 14.1909Z" fill="#00B67A"/>
<path d="M27.5272 25.8588L26.5811 22.7053L19.328 28.0663L27.5272 25.8588Z" fill="#005128"/>
<path d="M30.3651 45.7262H0.0913086V76H30.3651V45.7262Z" fill="#00B67A"/>
<path d="M62.8466 45.7262H32.5728V76H62.8466V45.7262Z" fill="#00B67A"/>
<path d="M95.6428 45.7262H65.369V76H95.6428V45.7262Z" fill="#00B67A"/>
<path d="M128.124 45.7262H97.8505V76H128.124V45.7262Z" fill="#00B67A"/>
<path d="M160.921 45.7262H130.647V76H160.921V45.7262Z" fill="#DCDCE6"/>
<path d="M130.647 45.7262H145.784V75.6847H130.647V45.7262Z" fill="#00B67A"/>
<path d="M14.9126 65.9086L19.6429 64.6472L21.535 70.6389L14.9126 65.9086ZM25.6346 58.3402H17.4354L14.9126 50.7717L12.3898 58.3402H4.50598L11.1284 63.0705L8.60556 70.6389L15.228 65.9086L19.3275 63.0705L25.6346 58.3402Z" fill="white"/>
<path d="M47.7098 65.9086L52.4401 64.6472L54.3322 70.6389L47.7098 65.9086ZM58.1164 58.3402H49.9173L47.3945 50.7717L44.8716 58.3402H36.6725L43.2949 63.0705L40.7721 70.6389L47.3945 65.9086L51.494 63.0705L58.1164 58.3402Z" fill="white"/>
<path d="M80.5062 65.9086L85.2365 64.6472L87.1286 70.6389L80.5062 65.9086ZM90.9128 58.3402H82.7137L80.1908 50.7717L77.668 58.3402H69.4689L76.0913 63.0705L73.8838 70.6389L80.5062 65.9086L84.6058 63.0705L90.9128 58.3402Z" fill="white"/>
<path d="M112.987 65.9086L117.717 64.6472L119.61 70.6389L112.987 65.9086ZM123.709 58.3402H115.51L112.987 50.7717L110.464 58.3402H102.265L108.888 63.0705L106.365 70.6389L112.987 65.9086L117.087 63.0705L123.709 58.3402Z" fill="white"/>
<path d="M145.784 65.9086L150.514 64.6472L152.407 70.6389L145.784 65.9086ZM156.191 58.3402H147.992L145.469 50.7717L143.261 58.3402H135.062L141.685 63.0705L139.162 70.6389L145.784 65.9086L149.884 63.0705L156.191 58.3402Z" fill="white"/>
</svg>
